<mxGraphModel><root><mxCell id="0"/><mxCell id="1" parent="0"/><mxCell id="2" value="Person" style="swimlane;fontStyle=1;align=center;verticalAlign=top;childLayout=stackLayout;horizontal=1;startSize=26;horizontalStack=0;resizeParent=1;resizeParentMax=0;resizeLast=0;collapsible=1;marginBottom=0;whiteSpace=wrap;html=1;" vertex="1" parent="1"><mxGeometry x="-515" y="-620" width="160" height="138" as="geometry"/></mxCell><mxCell id="3" value="- name: string" style="text;strokeColor=none;fillColor=none;align=left;verticalAlign=top;spacingLeft=4;spacingRight=4;overflow=hidden;rotatable=0;points=[[0,0.5],[1,0.5]];portConstraint=eastwest;whiteSpace=wrap;html=1;" vertex="1" parent="2"><mxGeometry y="26" width="160" height="26" as="geometry"/></mxCell><mxCell id="4" value="- age: num" style="text;strokeColor=none;fillColor=none;align=left;verticalAlign=top;spacingLeft=4;spacingRight=4;overflow=hidden;rotatable=0;points=[[0,0.5],[1,0.5]];portConstraint=eastwest;whiteSpace=wrap;html=1;" vertex="1" parent="2"><mxGeometry y="52" width="160" height="26" as="geometry"/></mxCell><mxCell id="5" value="- gender: string" style="text;strokeColor=none;fillColor=none;align=left;verticalAlign=top;spacingLeft=4;spacingRight=4;overflow=hidden;rotatable=0;points=[[0,0.5],[1,0.5]];portConstraint=eastwest;whiteSpace=wrap;html=1;" vertex="1" parent="2"><mxGeometry y="78" width="160" height="26" as="geometry"/></mxCell><mxCell id="6" value="" style="line;strokeWidth=1;fillColor=none;align=left;verticalAlign=middle;spacingTop=-1;spacingLeft=3;spacingRight=3;rotatable=0;labelPosition=right;points=[];portConstraint=eastwest;strokeColor=inherit;" vertex="1" parent="2"><mxGeometry y="104" width="160" height="8" as="geometry"/></mxCell><mxCell id="7" value="+ birthday(): void" style="text;strokeColor=none;fillColor=none;align=left;verticalAlign=top;spacingLeft=4;spacingRight=4;overflow=hidden;rotatable=0;points=[[0,0.5],[1,0.5]];portConstraint=eastwest;whiteSpace=wrap;html=1;" vertex="1" parent="2"><mxGeometry y="112" width="160" height="26" as="geometry"/></mxCell><mxCell id="8" value="Student" style="swimlane;fontStyle=1;align=center;verticalAlign=top;childLayout=stackLayout;horizontal=1;startSize=26;horizontalStack=0;resizeParent=1;resizeParentMax=0;resizeLast=0;collapsible=1;marginBottom=0;whiteSpace=wrap;html=1;" vertex="1" parent="1"><mxGeometry x="-750" y="-370" width="160" height="112" as="geometry"/></mxCell><mxCell id="9" value="" style="endArrow=none;html=1;rounded=0;entryX=0.5;entryY=0;entryDx=0;entryDy=0;" edge="1" parent="8" target="8"><mxGeometry width="50" height="50" relative="1" as="geometry"><mxPoint x="80" y="-60" as="sourcePoint"/><mxPoint x="130" as="targetPoint"/></mxGeometry></mxCell><mxCell id="10" value="- registration: num" style="text;strokeColor=none;fillColor=none;align=left;verticalAlign=top;spacingLeft=4;spacingRight=4;overflow=hidden;rotatable=0;points=[[0,0.5],[1,0.5]];portConstraint=eastwest;whiteSpace=wrap;html=1;" vertex="1" parent="8"><mxGeometry y="26" width="160" height="26" as="geometry"/></mxCell><mxCell id="11" value="- course: string" style="text;strokeColor=none;fillColor=none;align=left;verticalAlign=top;spacingLeft=4;spacingRight=4;overflow=hidden;rotatable=0;points=[[0,0.5],[1,0.5]];portConstraint=eastwest;whiteSpace=wrap;html=1;" vertex="1" parent="8"><mxGeometry y="52" width="160" height="26" as="geometry"/></mxCell><mxCell id="12" value="" style="line;strokeWidth=1;fillColor=none;align=left;verticalAlign=middle;spacingTop=-1;spacingLeft=3;spacingRight=3;rotatable=0;labelPosition=right;points=[];portConstraint=eastwest;strokeColor=inherit;" vertex="1" parent="8"><mxGeometry y="78" width="160" height="8" as="geometry"/></mxCell><mxCell id="13" value="+ cancelRegistration(): void" style="text;strokeColor=none;fillColor=none;align=left;verticalAlign=top;spacingLeft=4;spacingRight=4;overflow=hidden;rotatable=0;points=[[0,0.5],[1,0.5]];portConstraint=eastwest;whiteSpace=wrap;html=1;" vertex="1" parent="8"><mxGeometry y="86" width="160" height="26" as="geometry"/></mxCell><mxCell id="14" value="Employee" style="swimlane;fontStyle=1;align=center;verticalAlign=top;childLayout=stackLayout;horizontal=1;startSize=26;horizontalStack=0;resizeParent=1;resizeParentMax=0;resizeLast=0;collapsible=1;marginBottom=0;whiteSpace=wrap;html=1;" vertex="1" parent="1"><mxGeometry x="-280" y="-370" width="200" height="112" as="geometry"/></mxCell><mxCell id="15" value="- sector: string" style="text;strokeColor=none;fillColor=none;align=left;verticalAlign=top;spacingLeft=4;spacingRight=4;overflow=hidden;rotatable=0;points=[[0,0.5],[1,0.5]];portConstraint=eastwest;whiteSpace=wrap;html=1;" vertex="1" parent="14"><mxGeometry y="26" width="200" height="26" as="geometry"/></mxCell><mxCell id="16" value="- isWorking: boolean" style="text;strokeColor=none;fillColor=none;align=left;verticalAlign=top;spacingLeft=4;spacingRight=4;overflow=hidden;rotatable=0;points=[[0,0.5],[1,0.5]];portConstraint=eastwest;whiteSpace=wrap;html=1;" vertex="1" parent="14"><mxGeometry y="52" width="200" height="26" as="geometry"/></mxCell><mxCell id="17" value="" style="line;strokeWidth=1;fillColor=none;align=left;verticalAlign=middle;spacingTop=-1;spacingLeft=3;spacingRight=3;rotatable=0;labelPosition=right;points=[];portConstraint=eastwest;strokeColor=inherit;" vertex="1" parent="14"><mxGeometry y="78" width="200" height="8" as="geometry"/></mxCell><mxCell id="18" value="+ changeJob(sector: string): void" style="text;strokeColor=none;fillColor=none;align=left;verticalAlign=top;spacingLeft=4;spacingRight=4;overflow=hidden;rotatable=0;points=[[0,0.5],[1,0.5]];portConstraint=eastwest;whiteSpace=wrap;html=1;" vertex="1" parent="14"><mxGeometry y="86" width="200" height="26" as="geometry"/></mxCell><mxCell id="19" value="Professor" style="swimlane;fontStyle=1;align=center;verticalAlign=top;childLayout=stackLayout;horizontal=1;startSize=26;horizontalStack=0;resizeParent=1;resizeParentMax=0;resizeLast=0;collapsible=1;marginBottom=0;whiteSpace=wrap;html=1;" vertex="1" parent="1"><mxGeometry x="-570" y="-370" width="270" height="112" as="geometry"/></mxCell><mxCell id="20" value="- specialty: num" style="text;strokeColor=none;fillColor=none;align=left;verticalAlign=top;spacingLeft=4;spacingRight=4;overflow=hidden;rotatable=0;points=[[0,0.5],[1,0.5]];portConstraint=eastwest;whiteSpace=wrap;html=1;" vertex="1" parent="19"><mxGeometry y="26" width="270" height="26" as="geometry"/></mxCell><mxCell id="21" value="- salary: num" style="text;strokeColor=none;fillColor=none;align=left;verticalAlign=top;spacingLeft=4;spacingRight=4;overflow=hidden;rotatable=0;points=[[0,0.5],[1,0.5]];portConstraint=eastwest;whiteSpace=wrap;html=1;" vertex="1" parent="19"><mxGeometry y="52" width="270" height="26" as="geometry"/></mxCell><mxCell id="22" value="" style="line;strokeWidth=1;fillColor=none;align=left;verticalAlign=middle;spacingTop=-1;spacingLeft=3;spacingRight=3;rotatable=0;labelPosition=right;points=[];portConstraint=eastwest;strokeColor=inherit;" vertex="1" parent="19"><mxGeometry y="78" width="270" height="8" as="geometry"/></mxCell><mxCell id="23" value="+receiveSalaryIncrease(increase: number):void" style="text;strokeColor=none;fillColor=none;align=left;verticalAlign=top;spacingLeft=4;spacingRight=4;overflow=hidden;rotatable=0;points=[[0,0.5],[1,0.5]];portConstraint=eastwest;whiteSpace=wrap;html=1;" vertex="1" parent="19"><mxGeometry y="86" width="270" height="26" as="geometry"/></mxCell><mxCell id="24" value="Extends" style="endArrow=block;endSize=16;endFill=0;html=1;rounded=0;entryX=0.469;entryY=1.154;entryDx=0;entryDy=0;entryPerimeter=0;" edge="1" target="7" parent="1"><mxGeometry x="0.2727" width="160" relative="1" as="geometry"><mxPoint x="-440" y="-370" as="sourcePoint"/><mxPoint x="-310" y="-470" as="targetPoint"/><mxPoint as="offset"/></mxGeometry></mxCell><mxCell id="25" value="" style="endArrow=none;html=1;rounded=0;entryX=0.5;entryY=0;entryDx=0;entryDy=0;" edge="1" target="14" parent="1"><mxGeometry width="50" height="50" relative="1" as="geometry"><mxPoint x="-180" y="-430" as="sourcePoint"/><mxPoint x="-660" y="-360" as="targetPoint"/></mxGeometry></mxCell><mxCell id="26" value="" style="endArrow=none;html=1;rounded=0;" edge="1" parent="1"><mxGeometry width="50" height="50" relative="1" as="geometry"><mxPoint x="-670" y="-430" as="sourcePoint"/><mxPoint x="-180" y="-430" as="targetPoint"/></mxGeometry></mxCell><mxCell id="27" value="Technical" style="swimlane;fontStyle=1;align=center;verticalAlign=top;childLayout=stackLayout;horizontal=1;startSize=26;horizontalStack=0;resizeParent=1;resizeParentMax=0;resizeLast=0;collapsible=1;marginBottom=0;whiteSpace=wrap;html=1;" vertex="1" parent="1"><mxGeometry x="-810" y="-180" width="160" height="86" as="geometry"/></mxCell><mxCell id="28" value="Extends" style="endArrow=block;endSize=16;endFill=0;html=1;rounded=0;" edge="1" parent="27" target="13"><mxGeometry width="160" relative="1" as="geometry"><mxPoint x="70" as="sourcePoint"/><mxPoint x="230" as="targetPoint"/><Array as="points"><mxPoint x="140" y="-30"/></Array></mxGeometry></mxCell><mxCell id="29" value="- technicalRegistration: num" style="text;strokeColor=none;fillColor=none;align=left;verticalAlign=top;spacingLeft=4;spacingRight=4;overflow=hidden;rotatable=0;points=[[0,0.5],[1,0.5]];portConstraint=eastwest;whiteSpace=wrap;html=1;" vertex="1" parent="27"><mxGeometry y="26" width="160" height="26" as="geometry"/></mxCell><mxCell id="30" value="" style="line;strokeWidth=1;fillColor=none;align=left;verticalAlign=middle;spacingTop=-1;spacingLeft=3;spacingRight=3;rotatable=0;labelPosition=right;points=[];portConstraint=eastwest;strokeColor=inherit;" vertex="1" parent="27"><mxGeometry y="52" width="160" height="8" as="geometry"/></mxCell><mxCell id="31" value="+ pratice(): void" style="text;strokeColor=none;fillColor=none;align=left;verticalAlign=top;spacingLeft=4;spacingRight=4;overflow=hidden;rotatable=0;points=[[0,0.5],[1,0.5]];portConstraint=eastwest;whiteSpace=wrap;html=1;" vertex="1" parent="27"><mxGeometry y="60" width="160" height="26" as="geometry"/></mxCell><mxCell id="32" value="Scholarship" style="swimlane;fontStyle=1;align=center;verticalAlign=top;childLayout=stackLayout;horizontal=1;startSize=26;horizontalStack=0;resizeParent=1;resizeParentMax=0;resizeLast=0;collapsible=1;marginBottom=0;whiteSpace=wrap;html=1;" vertex="1" parent="1"><mxGeometry x="-620" y="-180" width="170" height="112" as="geometry"/></mxCell><mxCell id="33" value="Extends" style="endArrow=block;endSize=16;endFill=0;html=1;rounded=0;" edge="1" parent="32"><mxGeometry x="0.0024" width="160" relative="1" as="geometry"><mxPoint x="80" y="2" as="sourcePoint"/><mxPoint x="-50" y="-78" as="targetPoint"/><Array as="points"><mxPoint x="30" y="-10"/><mxPoint x="-50" y="-10"/></Array><mxPoint as="offset"/></mxGeometry></mxCell><mxCell id="34" value="-scholarship: num" style="text;strokeColor=none;fillColor=none;align=left;verticalAlign=top;spacingLeft=4;spacingRight=4;overflow=hidden;rotatable=0;points=[[0,0.5],[1,0.5]];portConstraint=eastwest;whiteSpace=wrap;html=1;" vertex="1" parent="32"><mxGeometry y="26" width="170" height="26" as="geometry"/></mxCell><mxCell id="35" value="" style="line;strokeWidth=1;fillColor=none;align=left;verticalAlign=middle;spacingTop=-1;spacingLeft=3;spacingRight=3;rotatable=0;labelPosition=right;points=[];portConstraint=eastwest;strokeColor=inherit;" vertex="1" parent="32"><mxGeometry y="52" width="170" height="8" as="geometry"/></mxCell><mxCell id="36" value="+ renewScholarship&lt;span style=&quot;background-color: initial;&quot;&gt;(): void&lt;/span&gt;" style="text;strokeColor=none;fillColor=none;align=left;verticalAlign=top;spacingLeft=4;spacingRight=4;overflow=hidden;rotatable=0;points=[[0,0.5],[1,0.5]];portConstraint=eastwest;whiteSpace=wrap;html=1;" vertex="1" parent="32"><mxGeometry y="60" width="170" height="26" as="geometry"/></mxCell><mxCell id="37" value="+ PayMonthlyFee(): void" style="text;strokeColor=none;fillColor=none;align=left;verticalAlign=top;spacingLeft=4;spacingRight=4;overflow=hidden;rotatable=0;points=[[0,0.5],[1,0.5]];portConstraint=eastwest;whiteSpace=wrap;html=1;" vertex="1" parent="32"><mxGeometry y="86" width="170" height="26" as="geometry"/></mxCell></root></mxGraphModel>